<?xml version="1.0" encoding="UTF-8"?>
<svg id="Layer_1" data-name="Layer 1" xmlns="http://www.w3.org/2000/svg" xmlns:xlink="http://www.w3.org/1999/xlink" viewBox="0 0 450.18 513.39">
  <defs>
    <style>
      .cls-1 {
        fill: url(#linear-gradient-2);
      }

      .cls-2 {
        fill: #fff;
      }

      .cls-3 {
        opacity: .5;
      }

      .cls-4 {
        fill: url(#linear-gradient-6);
      }

      .cls-5 {
        opacity: .3;
      }

      .cls-6 {
        fill: url(#linear-gradient-5);
      }

      .cls-7 {
        fill: #999;
      }

      .cls-8 {
        fill: url(#linear-gradient-7);
      }

      .cls-9 {
        fill: url(#linear-gradient-9);
      }

      .cls-10 {
        fill: url(#linear-gradient-3);
      }

      .cls-11 {
        fill: url(#linear-gradient);
      }

      .cls-12 {
        fill: url(#linear-gradient-4);
      }

      .cls-13 {
        fill: url(#linear-gradient-8);
      }
    </style>
    <linearGradient id="linear-gradient" x1="287.17" y1="254.98" x2="287.17" y2="254.81" gradientTransform="translate(-139.41 338.45) rotate(-58.87)" gradientUnits="userSpaceOnUse">
      <stop offset="0" stop-color="gray"/>
      <stop offset="1" stop-color="#d6d7d9"/>
    </linearGradient>
    <linearGradient id="linear-gradient-2" x1="229.65" y1="284.72" x2="229.65" y2="284.55" xlink:href="#linear-gradient"/>
    <linearGradient id="linear-gradient-3" x1="229.65" y1="284.72" x2="229.65" y2="284.55" xlink:href="#linear-gradient"/>
    <linearGradient id="linear-gradient-4" x1="229.65" y1="284.72" x2="229.65" y2="284.55" xlink:href="#linear-gradient"/>
    <linearGradient id="linear-gradient-5" x1="229.65" y1="284.72" x2="229.65" y2="284.55" xlink:href="#linear-gradient"/>
    <linearGradient id="linear-gradient-6" x1="225.09" y1="513.39" x2="225.09" y2="0" gradientTransform="matrix(1,0,0,1,0,0)" xlink:href="#linear-gradient"/>
    <linearGradient id="linear-gradient-7" x1="229.65" y1="284.72" x2="229.65" y2="284.55" xlink:href="#linear-gradient"/>
    <linearGradient id="linear-gradient-8" x1="229.65" y1="284.72" x2="229.65" y2="284.55" xlink:href="#linear-gradient"/>
    <linearGradient id="linear-gradient-9" x1="229.65" y1="284.72" x2="229.65" y2="284.55" xlink:href="#linear-gradient"/>
  </defs>
  <path class="cls-11" d="m227.13,224.38c.06,0,.12.01.19.01h0c-.06-.01-.13-.01-.19-.01Z"/>
  <path class="cls-1" d="m222.86,288.99h0c.06.01.13.01.19.01-.06,0-.12-.01-.19-.01Z"/>
  <path class="cls-11" d="m227.13,224.38c.06,0,.12.01.19.01h0c-.06-.01-.13-.01-.19-.01Z"/>
  <path class="cls-10" d="m222.86,288.99h0c.06.01.13.01.19.01-.06,0-.12-.01-.19-.01Z"/>
  <path class="cls-11" d="m227.13,224.38c.06,0,.12.01.19.01h0c-.06-.01-.13-.01-.19-.01Z"/>
  <path class="cls-12" d="m222.86,288.99h0c.06.01.13.01.19.01-.06,0-.12-.01-.19-.01Z"/>
  <path class="cls-11" d="m227.32,224.4h0c-.06-.01-.13-.01-.19-.01.06,0,.12.01.19.01Z"/>
  <path class="cls-6" d="m222.86,288.99c.06,0,.13.01.19.01-.06,0-.12-.01-.19-.01h0Z"/>
  <path class="cls-4" d="m446.9,127.76c-1.14-1.47-2.56-2.75-4.25-3.77l-18-10.87-.29.47s-.06.1-.09.15c-.06.09-.12.18-.17.27-.09.12-.17.24-.25.36-.08.11-.17.21-.25.32-.08.1-.16.19-.24.28-.08.09-.16.18-.24.27-.06.06-.11.12-.17.18-.07.07-.15.15-.23.22-.02.02-.03.03-.05.05-.08.07-.15.14-.23.21-.13.11-.26.22-.39.32-.22.17-.44.33-.67.48-.23.15-.46.29-.71.42-.09.05-.19.1-.29.15-.41.2-.84.38-1.27.53l-.32.1c-.13.04-.26.07-.39.11-2.41.6-5.05.27-7.34-1.12-4.59-2.77-6.06-8.74-3.29-13.32l9.79-16.21c4.45-7.37,2.08-16.94-5.28-21.39,0,0-105.83-63.9-106-64-.06-.04-.12-.07-.19-.1-.3-.16-.61-.32-.92-.46-.13-.06-.27-.12-.4-.17-.04-.02-.07-.03-.11-.04-.06-.03-.12-.05-.18-.07-.13-.05-.26-.11-.39-.15-.06-.02-.11-.04-.16-.06-.14-.05-.29-.1-.43-.15-.16-.05-.32-.1-.48-.14-.22-.06-.44-.12-.66-.18-.17-.04-.33-.08-.5-.11-.18-.03-.35-.07-.52-.1-.09-.02-.19-.03-.28-.05-.35-.06-.7-.09-1.06-.12-.16-.02-.34-.03-.51-.03-.59-.03-1.18-.02-1.77.02-.17,0-.35.03-.52.04,0,0,0,0,0,0-.19.02-.38.04-.57.07-.18.03-.36.05-.54.08-.76.13-1.51.32-2.25.56-.18.06-.36.12-.54.19-.15.06-.3.11-.45.17-.06.02-.12.05-.18.07-.12.05-.46.2-.51.22-.15.07-.3.14-.44.22-.12.06-.24.13-.37.19-.07.03-.13.07-.19.11-.04.03-.08.05-.13.07-.11.06-.22.12-.32.19-.17.1-.33.2-.49.3-.01,0-.03.02-.03.02-.08.05-.15.1-.23.15-.03.02-.06.04-.09.06-.05.03-.09.06-.14.1-.11.08-.22.15-.33.24-.04.02-.07.05-.1.08,0,0-.02.01-.03.02,0,0,0,0-.01,0-.03.02-.05.04-.08.06-.1.07-.19.15-.29.23-.1.08-.21.17-.31.26-.31.26-.61.54-.9.83-.09.1-.19.2-.29.3-.29.31-.57.62-.83.95-.08.1-.16.21-.24.32-.09.11-.17.23-.25.34-.06.07-.1.15-.15.22-.04.05-.08.11-.12.17-.14.22-.29.45-.43.68,0,0-10.08,16.68-10.17,16.82-.09.12-.17.24-.25.36-.08.11-.17.21-.25.32-.08.1-.16.19-.24.28-.08.09-.16.18-.24.27-.06.06-.11.12-.17.18-.07.07-.15.15-.23.22-.02.02-.03.03-.05.05-.08.07-.15.14-.23.21-.13.11-.26.22-.39.32-.22.17-.44.33-.67.48-.23.15-.46.29-.71.42-.09.05-.19.1-.29.15-.41.2-.84.38-1.27.53l-.32.1c-.13.04-.26.07-.39.11-2.41.6-5.05.27-7.34-1.12-4.59-2.77-6.06-8.74-3.29-13.32l.4-.66s-18.64-11.24-18.7-11.27c-.3-.16-.61-.32-.92-.46-.13-.06-.27-.12-.4-.17-.04-.02-.07-.03-.11-.04-.06-.03-.12-.05-.18-.07-.13-.05-.26-.11-.39-.15-.06-.02-.11-.04-.16-.06-.14-.05-.29-.1-.43-.15-.16-.05-.32-.1-.48-.14-.22-.06-.44-.12-.66-.18-.17-.04-.33-.08-.5-.11-.08-.02-.16-.03-.23-.04-.1-.02-.19-.04-.29-.05-.09-.02-.19-.03-.28-.05-.35-.06-.7-.09-1.06-.12-.16-.02-.34-.03-.51-.03-.59-.03-1.18-.02-1.77.02-.17,0-.35.03-.52.04,0,0,0,0,0,0-.19.02-.38.04-.57.07-.18.03-.36.05-.54.08-.76.13-1.51.32-2.25.56-.18.06-.36.12-.54.19-.15.06-.3.11-.45.17-.06.02-.12.05-.18.07-.06.03-.46.2-.51.22-.15.07-.3.14-.44.22-.12.06-.24.13-.37.19-.07.03-.13.07-.19.11-.04.03-.08.05-.13.07-.11.06-.22.12-.32.19-.17.1-.33.2-.49.3-.01,0-.03.02-.03.02-.08.05-.15.1-.23.15-.03.02-.06.04-.09.06-.05.03-.09.06-.14.1-.11.08-.22.15-.33.24-.04.02-.07.05-.1.08,0,0-.02.01-.03.02,0,0,0,0-.01,0-.03.02-.05.04-.08.06-.1.07-.19.15-.29.23-.1.08-.21.17-.31.26-.31.26-.61.54-.9.83-.09.1-.19.2-.29.3-.29.31-.57.62-.83.95-.08.1-.16.21-.24.32-.09.11-.17.23-.25.34-.06.07-.1.15-.15.22-.04.05-.08.11-.12.17-.14.22-.29.45-.43.68L2.25,368.01c-3.46,5.73-2.8,12.8,1.13,17.75,1.12,1.42,2.51,2.66,4.15,3.64l18,10.87.29-.47s.06-.1.09-.15c.06-.09.12-.18.17-.27.07-.1.14-.2.21-.3.06-.08.12-.16.17-.23.05-.07.11-.14.16-.21.03-.03.05-.06.08-.09.09-.11.18-.21.28-.32.1-.11.21-.22.32-.33,0,0,.01-.01.02-.02.11-.11.23-.22.34-.32.12-.11.23-.21.36-.31h0c.21-.17.42-.33.64-.47.19-.13.38-.25.58-.37.3-.17.6-.32.91-.46.1-.05.21-.09.31-.14.2-.08.4-.16.61-.22.02,0,.04-.01.07-.02.1-.03.19-.06.28-.09.22-.06.44-.12.66-.16.43-.1.86-.15,1.3-.19.03,0,.05,0,.08,0,.1,0,.21,0,.31-.02.23-.01.46-.01.68,0,.11,0,.23,0,.34.02.16.01.32.03.48.05.17.01.33.04.49.07.02,0,.05.01.07.01.11.02.22.04.32.07.11.02.23.05.34.08.17.04.33.09.49.14.11.03.22.07.33.11,0,0,.02,0,.04.01.1.03.19.07.29.11.06.02.12.05.18.07.11.04.21.1.32.14.08.03.15.07.23.11.07.03.14.07.21.11.18.09.35.19.52.29,2.3,1.39,3.81,3.57,4.41,5.98.59,2.41.27,5.05-1.12,7.34l-9.79,16.21c-4.45,7.37-2.08,16.94,5.28,21.39,0,0,106.12,64.06,106.19,64.1.3.16.61.32.92.45.14.06.27.12.42.18.03.02.06.03.09.04.06.02.11.05.17.07.14.06.28.11.43.16.05.02.09.03.13.05.14.05.28.1.43.15.17.06.35.11.52.16.2.06.41.11.62.16.16.04.33.08.5.11.24.05.49.09.73.13.16.03.32.05.48.07.02,0,.04,0,.07,0,.17.02.34.04.51.05.19.02.38.03.57.04.14,0,.28.01.42.02.05,0,.11,0,.16,0,.19,0,.38,0,.57,0,0,0,.01,0,.02,0,.18,0,.37-.01.55-.03.38-.02.76-.06,1.14-.11.38-.05.75-.11,1.13-.2.18-.04.37-.08.56-.13.18-.05.37-.1.55-.15.16-.04.52-.16.54-.17.16-.06.33-.11.49-.17.21-.08.42-.16.63-.24.16-.07.32-.14.48-.21.19-.09.38-.17.56-.27.15-.08.31-.16.47-.25.46-.25.9-.53,1.34-.82,0,0,.02-.01.02-.02.04-.02.07-.05.11-.08.12-.09.24-.17.36-.26.02-.01.04-.03.06-.05,0,0,.01,0,.02-.01.02-.01.03-.02.05-.03.03-.02.05-.03.07-.05.1-.08.19-.15.29-.23.18-.14.35-.29.53-.44.23-.21.46-.42.68-.64.09-.1.19-.2.29-.3.29-.31.57-.62.83-.95.08-.1.16-.21.24-.32.09-.11.17-.23.25-.34.06-.07.1-.15.15-.22.04-.05.08-.11.12-.17.14-.22.29-.45.43-.68,0,0,10.08-16.68,10.17-16.82.07-.1.14-.2.21-.3.06-.08.12-.16.17-.23.05-.07.11-.14.16-.21.03-.03.05-.06.08-.09.09-.11.18-.21.28-.32.1-.11.21-.22.32-.33,0,0,.01-.01.02-.02.11-.11.23-.22.34-.32.12-.11.23-.21.36-.31h0c.21-.17.42-.33.64-.47.19-.13.38-.25.58-.37.3-.17.6-.32.91-.46.1-.05.21-.09.31-.14.2-.08.4-.16.61-.22.02,0,.04-.01.07-.02.1-.03.19-.06.28-.09.22-.06.44-.12.66-.16.43-.1.86-.15,1.3-.19.03,0,.05,0,.08,0,.1,0,.21,0,.31-.02.23-.01.46-.01.68,0,.11,0,.23,0,.34.02.16.01.32.03.48.05.17.01.33.04.49.07.02,0,.05,0,.07.01.11.02.22.04.32.07.11.02.23.05.34.08.17.04.33.09.49.14.11.03.22.07.33.11,0,0,.02,0,.04.01.1.03.19.07.29.11.06.02.12.05.18.07.11.04.21.1.32.14.08.03.15.07.23.11.07.03.14.07.21.11.18.09.35.19.52.29,2.3,1.39,3.81,3.57,4.41,5.98.59,2.41.27,5.05-1.12,7.34l-.4.66s18.64,11.24,18.7,11.27c.3.16.61.32.92.46.14.06.28.12.42.18.03.02.06.03.09.04.06.02.11.05.17.07.14.06.28.11.43.16.05.02.09.03.13.05.14.05.28.1.43.15.17.06.35.11.52.16.2.06.41.11.62.16.16.04.33.08.5.11.13.02.26.05.39.07.11.02.22.04.34.05.16.03.32.05.48.07.02,0,.04,0,.07,0,.17.02.34.03.51.05.19.02.38.03.57.04.14,0,.28.01.42.02.05,0,.11,0,.16,0,.19,0,.38,0,.57,0,0,0,.01,0,.02,0,.18,0,.37-.01.55-.03.38-.02.76-.06,1.14-.11.38-.05.75-.11,1.13-.2.18-.04.37-.08.56-.13.18-.05.37-.1.55-.15.16-.04.52-.16.54-.17.16-.06.33-.11.49-.17.21-.08.42-.16.63-.24.16-.07.32-.14.48-.21.19-.09.38-.17.56-.27.15-.08.31-.16.47-.25.46-.25.9-.53,1.34-.82,0,0,.02-.01.02-.02.04-.02.07-.05.11-.08.12-.09.24-.17.36-.26.02-.01.04-.03.06-.05,0,0,.01,0,.02-.01.02-.01.03-.02.05-.03.03-.02.05-.03.07-.05.1-.08.19-.15.29-.23.18-.14.35-.29.53-.44.23-.21.46-.42.68-.64.09-.1.19-.2.29-.3.29-.31.57-.62.83-.95.08-.1.16-.21.24-.32.09-.11.17-.23.25-.34.06-.07.1-.15.15-.22.04-.05.08-.11.12-.17.14-.22.29-.45.43-.68l217.62-360.37c3.43-5.68,2.81-12.67-1.03-17.62Zm-81.07-30.05c-.04.07-.09.14-.14.21-.02.04-.05.08-.08.11-.05.07-.11.14-.17.21-.08.1-.17.19-.26.28-.08.07-.15.15-.23.21,0,0-.02.02-.02.02-.19.17-.41.32-.64.46-.62.38-1.36.67-2.21.87-.1.03-.21.05-.31.07-.09.02-.18.03-.27.05-.45.07-.93.14-1.43.17-.12.01-.24.02-.36.02-1.53.07-3.27-.05-5.19-.36-.25-.04-.51-.08-.77-.13-.01,0-.55-.11-.81-.15-.25-.05-1.02-.22-1.15-.25-.84-.19-1.7-.41-2.59-.66-.26-.07-1.27-.38-1.52-.45-.76-.23-1.54-.49-2.33-.77-.57-.2-1.14-.41-1.73-.62-.4-.15-2.67-1.06-2.97-1.18-.19-.08-1.09-.46-1.18-.5l-7.12,11.79,7.05,28.56c.68,2.77.17,5.57-1.21,7.84-.08.14-.17.28-.26.41-.17.25-.35.5-.54.74-.05.06-.1.13-.16.19-.07.08-.14.17-.21.25-.14.16-.29.32-.45.47-.06.06-.13.12-.19.18-.1.09-.2.18-.3.27-.11.1-.23.2-.36.29,0,0,0,0-.01,0-.2.17-.42.32-.64.46,0,0,0,0,0,0-.2.13-.4.25-.61.37-.19.11-.38.22-.58.31-.11.06-.22.11-.34.16-.1.05-.21.09-.32.14-.08.03-.16.06-.23.09-.08.03-.16.06-.24.09-.29.1-.6.19-.9.27l-28.55,7.05-7.12,11.8c11,8.82,17.11,17.74,14.41,22.22-.04.07-.09.15-.14.21-.02.04-.05.08-.08.11-.05.07-.11.14-.17.21-.08.1-.17.19-.26.28-.08.07-.15.15-.23.21,0,0-.02.02-.02.02-.19.17-.41.32-.64.46-.62.38-1.36.67-2.21.87-.1.03-.21.05-.31.07-.09.02-.18.03-.27.05-.45.07-.93.14-1.43.17-.12.01-.24.02-.36.02-.37.02-.76.02-1.15.02-.26,0-.53-.01-.81-.02-.14,0-.28-.02-.42-.03-.14-.01-.72-.06-.87-.07-.28-.03-.57-.07-.87-.1-.15-.02-.3-.04-.46-.06-.15-.02-.3-.04-.46-.07-.16-.02-.31-.05-.47-.08-.17-.03-.34-.06-.51-.09-.25-.04-.87-.17-.93-.18-.54-.11-1.08-.23-1.64-.37-.33-.08-.67-.16-1.02-.26-.25-.06-1.45-.4-1.71-.48-.25-.07-.5-.15-.74-.23-1.04-.32-2.1-.68-3.2-1.08-.28-.1-.57-.21-.86-.32-1.16-.44-2.34-.92-3.55-1.43-.11-.04-.51-.22-.6-.26l-31.72,52.52c6.34,10.04,6.91,23.2.35,34.05-.58.96-1.2,1.87-1.85,2.74-.14.19-.28.38-.43.56-.14.18-.28.35-.42.52-.36.45-.74.88-1.13,1.3-.17.19-.34.37-.52.55-.14.15-.28.3-.42.44-.35.35-.71.69-1.07,1.02-.14.13-.28.25-.42.38-.15.14-.3.27-.46.4-.16.14-.32.27-.48.4-.39.32-.79.63-1.19.93,0,0-.01,0-.02.01-.23.17-.45.33-.68.49-.09.06-.18.13-.27.19-.15.1-.31.21-.46.31-.54.36-1.09.7-1.65,1.02-.17.1-.34.19-.51.29-.07.04-.15.08-.22.12-.17.09-.33.18-.5.26-.2.11-.41.21-.62.32-.21.11-.42.21-.63.31-.14.07-.27.13-.42.19-.27.12-.54.23-.82.35-.01,0-.03.02-.05.02-.3.12-.6.24-.91.36-.05.02-.1.04-.16.06-.28.11-.56.21-.85.31-.08.03-.16.05-.23.08-.29.1-.58.2-.88.28-.02,0-.05.02-.07.02-.29.08-.58.17-.87.25-.33.09-.66.18-.99.25-.08.02-.16.04-.23.05-.34.08-.69.15-1.04.22-.03,0-.06.01-.1.02-.3.05-.6.11-.9.16-.06.01-.12.02-.18.03-.31.05-.63.09-.95.13-.43.06-.86.1-1.29.14-.27.02-.54.04-.8.06-.45.03-.89.05-1.34.07-.35,0-.71,0-1.07,0-.37,0-.74-.01-1.11-.03-.13,0-.26-.01-.38-.02-.07,0-.13,0-.19-.01-.06,0-.12-.01-.19-.01h0c-.11,0-.23-.01-.35-.02l-31.72,52.52c11,8.82,17.11,17.74,14.41,22.22-.04.07-.09.14-.14.21-.02.04-.05.08-.08.11-.05.07-.11.14-.17.21-.08.1-.17.19-.26.28-.08.07-.15.15-.23.21,0,0-.02.02-.02.02-.19.17-.41.32-.64.46-.62.38-1.36.67-2.21.87-.1.03-.21.05-.31.07-.09.02-.18.03-.27.05-.45.07-.93.14-1.43.17-.12.01-.24.02-.36.02-.37.02-.76.02-1.15.02-.26,0-.53-.01-.81-.02-.14,0-.28-.02-.42-.03-.14-.01-.72-.06-.87-.07-.28-.03-.57-.07-.87-.1-.15-.02-.3-.04-.46-.06-.15-.02-.3-.04-.46-.07-.16-.02-.31-.05-.47-.08-.17-.03-.34-.06-.51-.09-.25-.04-.87-.17-.93-.18-.54-.11-1.08-.23-1.64-.37-.33-.08-.67-.16-1.02-.26-.25-.06-1.45-.4-1.71-.48-.25-.07-.5-.15-.74-.23-1.04-.32-2.1-.68-3.2-1.08-.14-.05-.72-.26-.86-.32-1.16-.44-2.34-.92-3.55-1.43-.11-.04-.51-.22-.6-.26l-7.12,11.8,7.05,28.55c.68,2.77.17,5.58-1.21,7.86-.08.14-.17.27-.26.4-.17.25-.35.5-.54.73-.06.08-.13.16-.19.23-.06.07-.11.13-.17.2-.2.23-.42.44-.64.65-.1.1-.21.19-.32.28-.11.1-.23.2-.36.29,0,0,0,0-.01,0-.2.17-.42.32-.64.46,0,0,0,0,0,0-.19.13-.39.25-.59.37-.19.11-.39.21-.58.31-.12.05-.23.11-.35.16-.1.05-.21.09-.32.14-.08.03-.16.06-.23.09-.08.03-.16.06-.24.09-.29.1-.6.19-.9.27l-28.56,7.05-7.12,11.79c11,8.82,17.11,17.74,14.41,22.22-.08.12-.16.24-.25.36-.04.07-.1.13-.15.19-.14.17-.3.33-.48.48,0,0,0,0-.01,0-.2.17-.42.33-.66.48-.08.05-.16.1-.25.14-.18.1-.38.2-.59.28-.31.13-.63.25-.99.34-.35.1-.72.18-1.11.24-.29.05-.59.09-.91.12-.1,0-.21.02-.32.02-.26.02-.53.03-.81.04-.02,0-.05,0-.07,0-.15,0-.3,0-.46,0-.31,0-.63,0-.95-.02-.48-.02-.99-.06-1.51-.12-.35-.04-.7-.08-1.06-.13-.34-.04-.68-.1-1.03-.16-.02,0-.04,0-.06-.01-.56-.09-1.13-.2-1.72-.33-.2-.04-.39-.08-.59-.13-.2-.05-1.41-.34-1.82-.45-.62-.17-1.25-.34-1.89-.53-.21-.07-.43-.13-.65-.2-.65-.2-1.31-.42-1.98-.65-.22-.08-1.77-.63-1.98-.71-.5-.19-1.01-.39-1.53-.59-.21-.08-.41-.17-.62-.25-.7-.29-1.42-.59-2.13-.9-.24-.1-1.6-.72-1.82-.82-1.08-.5-2.18-1.03-3.28-1.59-.25-.13-1.93-.99-2.5-1.31-.28-.15-2.56-1.42-2.79-1.55-.76-.43-1.52-.88-2.28-1.34-18.11-10.93-29.89-24.59-26.32-30.5.05-.08.09-.14.14-.22.02-.04.05-.07.08-.11.05-.07.11-.14.17-.21.08-.1.17-.19.26-.28.07-.08.15-.15.23-.21,0,0,.02-.02.02-.02.19-.17.41-.32.64-.46.55-.34,1.19-.6,1.92-.8.09-.03.19-.05.28-.07.1-.02.21-.05.31-.07.09-.02.18-.03.27-.05.45-.07.93-.14,1.43-.17.12-.01.24-.02.36-.02,1.53-.07,3.27.05,5.19.36.25.04.51.08.77.13.01,0,.55.11.81.15.25.05,1.02.22,1.15.25.84.19,1.7.41,2.59.66.26.07,1.27.38,1.52.45.76.23,1.54.49,2.33.77.57.2,1.14.41,1.73.62.4.15,4.06,1.65,4.15,1.69l7.12-11.79-7.05-28.56c-.68-2.77-.17-5.57,1.21-7.84.08-.14.17-.28.26-.41.17-.25.35-.5.54-.74.05-.06.1-.13.16-.19.07-.08.14-.17.21-.25.14-.16.29-.32.45-.47.06-.06.13-.12.19-.18.1-.09.2-.18.3-.27.11-.1.23-.2.36-.29,0,0,0,0,.01,0,.2-.17.42-.32.64-.46,0,0,0,0,0,0,.2-.13.4-.25.61-.37.19-.11.38-.22.58-.31.11-.06.22-.11.34-.16.1-.05.21-.09.32-.14.08-.03.16-.06.23-.09.08-.03.16-.06.24-.09.29-.1.6-.19.9-.27l28.55-7.05,7.12-11.8c-11-8.82-17.11-17.74-14.41-22.22.05-.08.09-.14.14-.22.02-.04.05-.07.08-.11.05-.07.11-.14.17-.21.08-.1.17-.19.26-.28.07-.08.15-.15.23-.21,0,0,.02-.02.02-.02.19-.17.41-.32.64-.46.55-.34,1.19-.6,1.92-.8.09-.03.19-.05.28-.07.1-.02.21-.05.31-.07.09-.02.18-.03.27-.05.45-.07.93-.14,1.43-.17.12-.01.24-.02.36-.02.37-.02.76-.02,1.15-.02.26,0,.53.01.81.03.14,0,.28.02.42.03.14.01.72.06.87.07.28.03.57.07.87.1.15.02.3.04.46.06.15.02.3.04.46.07.16.02.31.04.47.08.17.03.34.06.51.09.25.04.87.17.93.18.54.11,1.08.23,1.64.37.33.08.67.16,1.02.26.25.06,1.44.4,1.71.48.25.07.5.15.74.23,1.04.32,2.1.68,3.2,1.08.28.1,1.21.45,1.39.52.99.38,1.99.79,3.01,1.22.11.04.51.22.6.26l31.72-52.52c-6.34-10.04-6.91-23.2-.35-34.05.58-.96,1.2-1.87,1.85-2.74.14-.19.28-.38.43-.56.14-.18.28-.35.42-.52.36-.45.74-.88,1.13-1.3.17-.19.34-.37.52-.55.14-.15.28-.29.42-.44.11-.11.22-.22.34-.33.24-.24.48-.47.73-.69.14-.13.28-.25.42-.38.15-.14.3-.27.45-.4.16-.14.32-.27.48-.4.39-.32.79-.63,1.19-.93,0,0,.01,0,.02-.01.23-.17.45-.33.68-.49.09-.06.18-.13.27-.19.15-.1.31-.21.46-.31.54-.36,1.09-.7,1.65-1.02.17-.1.34-.19.51-.29.07-.04.15-.08.22-.12.17-.09.33-.18.5-.26.2-.11.41-.21.63-.32.21-.11.42-.21.63-.31.14-.07.27-.13.42-.19.27-.12.54-.23.82-.35.01,0,.03-.02.05-.02.3-.12.6-.24.91-.36.05-.02.1-.04.16-.06.28-.11.57-.21.85-.31.08-.03.16-.05.23-.08.29-.1.58-.2.88-.28.02,0,.05-.02.07-.02.29-.08.58-.17.87-.25.11-.03.23-.06.34-.09.15-.04.3-.08.44-.11.15-.04.29-.07.44-.11.34-.08,1.1-.24,1.14-.24.3-.05.6-.11.9-.16.06-.01.12-.02.18-.03.31-.05.63-.09.95-.13.43-.06.86-.1,1.29-.14.27-.02.54-.04.8-.06.45-.03.89-.05,1.34-.07.35,0,.71,0,1.07,0,.37,0,.74.01,1.11.03.13,0,.26.01.38.02.07,0,.13,0,.19.01.06,0,.12.01.19.01h0c.11,0,.23.01.35.02l31.72-52.52c-11-8.82-17.11-17.74-14.41-22.22.05-.08.09-.14.14-.22.02-.04.05-.07.08-.11.05-.07.11-.14.17-.21.08-.1.17-.19.26-.28.07-.08.15-.15.23-.21,0,0,.02-.02.02-.02.19-.17.41-.32.64-.46.55-.34,1.19-.6,1.92-.8.09-.03.19-.05.28-.07.1-.02.21-.05.31-.07.09-.02.18-.03.27-.05.45-.07.93-.14,1.43-.17.12-.01.24-.02.36-.02.37-.02.76-.02,1.15-.02.26,0,.53.01.81.03.14,0,.28.02.42.03.14.01.72.06.87.07.28.03.57.07.87.1.15.02.3.04.46.06.15.02.3.04.46.07.16.02.31.04.47.08.17.03.34.06.51.09.25.04.87.17.93.18.54.11,1.08.23,1.64.37.33.08.67.16,1.02.26.25.06,1.44.4,1.71.48.25.07.5.15.74.23,1.04.32,2.1.68,3.2,1.08.28.1.57.21.86.32,1.16.44,2.34.92,3.55,1.43.11.04.51.22.6.26l7.12-11.8-7.05-28.55c-.68-2.77-.17-5.58,1.21-7.86.08-.14.17-.27.26-.4.17-.25.35-.5.54-.73.06-.08.13-.16.19-.23.06-.07.11-.13.17-.2.2-.23.42-.44.64-.65.1-.1.21-.19.32-.28.11-.1.23-.2.36-.29,0,0,0,0,.01,0,.2-.17.42-.32.64-.46,0,0,0,0,0,0,.19-.13.39-.25.59-.37.19-.11.39-.21.58-.31.12-.05.23-.11.35-.16.1-.05.21-.09.32-.14.08-.03.16-.06.23-.09.08-.03.16-.06.24-.09.29-.1.6-.19.9-.27l28.56-7.05,7.12-11.79c-11-8.82-17.11-17.74-14.41-22.22.08-.14.17-.27.27-.39.04-.06.09-.12.13-.17.07-.09.15-.17.23-.25,0-.02.02-.02.03-.03.08-.07.15-.14.23-.21h0c.19-.17.41-.33.64-.47,0,0,0,0,.01,0,.08-.05.17-.11.26-.15.08-.05.17-.09.26-.13.03,0,.05-.02.07-.03.08-.04.17-.08.26-.11.11-.04.21-.09.32-.12.11-.04.22-.08.33-.11.11-.04.22-.07.34-.1.23-.06.47-.12.73-.17.13-.02.26-.04.39-.07.1-.02.21-.03.32-.05.96-.13,2.03-.17,3.2-.11.15,0,.3.02.45.03.51.04,1.03.08,1.58.15.18.02.35.04.53.07.36.05.73.11,1.11.17.37.06.74.13,1.12.21.08.01.17.03.25.05.15.03.29.06.44.09.22.05.44.1.66.15,1.93.45,3.99,1.05,6.15,1.8.22.08,1.84.67,2.03.74.93.35,1.87.73,2.83,1.12.26.11,1.79.77,1.98.86.81.36,1.62.74,2.44,1.13.2.1.41.2.62.3,1.31.63,2.62,1.31,3.95,2.03.28.15,2.56,1.42,2.79,1.55.76.43,1.52.88,2.28,1.34,18.11,10.93,29.89,24.59,26.32,30.5Z"/>
  <path class="cls-8" d="m222.86,288.99h0c.06.01.13.01.19.01-.06,0-.12-.01-.19-.01Z"/>
  <path class="cls-11" d="m227.13,224.38c.06,0,.12.01.19.01h0c-.06-.01-.13-.01-.19-.01Z"/>
  <path class="cls-13" d="m222.86,288.99h0c.06.01.13.01.19.01-.06,0-.12-.01-.19-.01Z"/>
  <path class="cls-11" d="m227.13,224.38c.06,0,.12.01.19.01h0c-.06-.01-.13-.01-.19-.01Z"/>
  <path class="cls-9" d="m222.86,288.99h0c.06.01.13.01.19.01-.06,0-.12-.01-.19-.01Z"/>
  <path class="cls-11" d="m227.13,224.38c.06,0,.12.01.19.01h0c-.06-.01-.13-.01-.19-.01Z"/>
  <g>
    <path class="cls-7" d="m236.1.39L3.38,385.76c-3.93-4.95-4.6-12.01-1.13-17.75C2.25,368.01,220.16,7.19,220.3,6.97c.04-.06.07-.11.12-.17.05-.07.1-.15.15-.22.08-.11.16-.23.25-.34.08-.11.16-.21.24-.32.26-.33.54-.64.83-.95.09-.1.19-.2.29-.3.29-.29.59-.57.9-.83.11-.09.21-.18.31-.26.09-.08.19-.15.29-.23.03-.02.05-.04.08-.06,0,0,0,0,.01,0,0,0,.02-.01.03-.02.03-.03.07-.05.1-.08.11-.08.22-.16.33-.24.04-.04.09-.06.14-.1.03-.02.06-.04.09-.06.08-.05.15-.1.23-.15,0,0,.02-.01.03-.02.16-.1.32-.21.49-.3.11-.06.21-.13.32-.19.04-.03.08-.05.13-.07.07-.04.13-.07.19-.11.12-.06.24-.13.37-.19.15-.08.29-.15.44-.22.05-.02.09-.04.14-.06.06-.02.12-.05.18-.08.06-.03.12-.05.19-.08.06-.03.12-.05.18-.07.15-.06.3-.12.45-.17.18-.07.36-.13.54-.19.73-.24,1.48-.43,2.25-.56.18-.03.36-.06.54-.08.19-.03.38-.05.57-.07,0,0,0,0,0,0,.17-.02.35-.03.52-.04.58-.04,1.18-.05,1.77-.02.17,0,.34.02.51.03.35.03.71.06,1.06.12.09.01.18.03.28.05.1.01.2.03.29.05Z"/>
    <path class="cls-7" d="m446.9,127.76c3.84,4.94,4.46,11.94,1.03,17.62,0,0-217.91,360.82-218.05,361.04-.04.06-.07.11-.12.17-.05.07-.1.15-.15.22-.08.11-.16.23-.25.34-.08.11-.16.21-.24.32-.26.33-.54.64-.83.95-.09.1-.19.2-.29.3-.22.22-.45.44-.68.64-.17.15-.35.3-.53.44-.09.08-.19.15-.29.23-.02.02-.04.04-.07.05-.02.01-.03.02-.05.03,0,0-.01,0-.02.01-.02.02-.04.03-.06.05-.12.09-.24.17-.36.26-.04.03-.07.05-.11.08,0,0-.01.01-.02.02-.44.29-.88.57-1.34.82-.16.09-.31.17-.47.25-.19.1-.37.18-.56.27-.16.07-.32.14-.48.21-.21.09-.41.17-.63.24-.16.06-.33.11-.49.17-.02,0-.04.01-.07.02-.16.05-.32.1-.48.14-.19.05-.37.1-.55.15-.19.05-.37.09-.56.13-.37.08-.75.15-1.13.2-.38.05-.76.09-1.14.11-.18.01-.37.02-.55.03,0,0-.01,0-.02,0-.19,0-.38,0-.57,0-.05,0-.11,0-.16,0-.14,0-.28,0-.42-.02-.19,0-.38-.02-.57-.04-.17-.02-.34-.03-.51-.05-.02,0-.04,0-.07,0-.16-.02-.32-.04-.48-.07-.11-.02-.23-.03-.34-.05L446.9,127.76Z"/>
  </g>
  <g class="cls-3">
    <path class="cls-2" d="m28.69,396.78c.19-.13.38-.25.58-.37.3-.17.6-.32.91-.46.1-.05.21-.09.31-.14.2-.08.4-.16.61-.22.02,0,.04-.01.07-.02.1-.03.19-.06.28-.09.22-.06.44-.12.66-.16.42-.09.86-.14,1.3-.19.03,0,.05,0,.08,0,.1,0,.21,0,.31-.01.23-.01.46-.01.68,0,.11,0,.23,0,.34.02.16.01.32.03.48.05.17.01.33.04.49.07.02,0,.05,0,.07.01.11.02.22.04.32.07.11.02.23.05.34.08.17.04.33.09.49.14.11.03.22.07.33.11,0,0,.02,0,.04.01.1.03.19.07.29.11.06.02.12.05.18.07.11.04.21.1.32.14.08.03.15.07.23.11.07.03.14.07.21.11.18.09.35.19.52.29,2.3,1.39,3.81,3.57,4.41,5.98.59,2.41.27,5.05-1.12,7.34l-9.79,16.21c-4.45,7.37-2.08,16.94,5.28,21.39,0,0,106.12,64.06,106.19,64.1.3.16.61.32.92.46.14.06.27.12.42.18.03.02.06.03.09.04.06.02.11.05.17.07.14.06.28.11.43.16.05.02.09.03.13.05.14.05.28.1.43.15.17.06.35.11.52.16.2.06.41.11.62.16.16.04.33.08.5.11.24.05.49.09.73.13.16.03.32.05.48.07.02,0,.04,0,.07,0,.17.02.34.03.51.05.19.02.38.03.57.04.14,0,.28.01.42.02.05,0,.11,0,.16,0,.19,0,.38,0,.57,0,0,0,.01,0,.02,0,.18,0,.37-.01.55-.03.38-.02.76-.06,1.14-.11.38-.05.76-.12,1.13-.2.18-.04.37-.08.56-.13.18-.05.37-.1.55-.15.16-.04.52-.16.54-.17.16-.06.33-.11.49-.17.21-.08.42-.16.63-.24.16-.07.32-.14.48-.21.19-.09.38-.17.56-.27.15-.08.31-.16.47-.25.46-.25.9-.53,1.34-.82,0,0,.02-.01.02-.02.04-.02.07-.05.11-.08.12-.09.24-.17.36-.26.02-.01.04-.03.06-.05-.1.07-.2.13-.3.2-4.91,3.02-11.24,3.43-16.51.25l-105.49-63.7c-7.37-4.45-9.73-14.02-5.28-21.39l9.79-16.21c1.38-2.29,1.71-4.93,1.12-7.34-.6-2.41-2.11-4.59-4.41-5.98-3.58-2.16-8-1.74-11.09.73Zm185.87,115.72c-1.72-.34-3.41-.98-5-1.94l-18-10.87.4-.66c1.38-2.29,1.71-4.93,1.12-7.34-.6-2.41-2.11-4.59-4.41-5.98-3.58-2.16-8-1.74-11.09.73.19-.13.38-.25.58-.37.3-.17.6-.32.91-.46.1-.05.21-.09.31-.14.2-.08.4-.16.61-.22.02,0,.04-.01.07-.02.1-.03.19-.06.28-.09.22-.06.44-.12.66-.16.42-.09.86-.14,1.3-.19.03,0,.05,0,.08,0,.1,0,.21,0,.31-.01.23-.01.46-.01.68,0,.11,0,.23,0,.34.02.16.01.32.03.48.05.17.01.33.04.49.07.02,0,.05,0,.07.01.11.02.22.04.32.07.11.02.23.05.34.08.17.04.33.09.49.14.11.03.22.07.33.11,0,0,.02,0,.04.01.1.03.19.07.29.11.06.02.12.05.18.07.11.04.21.1.32.14.08.03.15.07.23.11.07.03.14.07.21.11.18.09.35.19.52.29,2.3,1.39,3.81,3.57,4.41,5.98.59,2.41.27,5.05-1.12,7.34l-.4.66s18.64,11.24,18.7,11.27c.3.16.61.32.92.45.14.06.27.12.42.18.03.02.06.03.09.04.06.02.11.05.17.07.14.06.28.11.43.16.05.02.09.03.13.05.14.05.28.1.43.15.17.06.35.11.52.16.2.06.41.11.62.16.16.04.33.08.5.11.13.02.26.05.39.07.11.02.22.04.34.05.16.03.32.05.48.07.02,0,.04,0,.07,0,.17.02.34.04.51.05.19.02.38.03.57.04.14,0,.28.01.42.02.05,0,.11,0,.16,0,.19,0,.38,0,.57,0,0,0,.01,0,.02,0,.18,0,.37-.01.55-.03.38-.02.76-.06,1.14-.11.38-.05.76-.12,1.13-.2.18-.04.37-.08.56-.13.18-.05.37-.1.55-.15.16-.04.52-.16.54-.17.16-.06.33-.11.49-.17.21-.08.42-.16.63-.24.16-.07.32-.14.48-.21.19-.09.38-.17.56-.27.15-.08.31-.16.47-.25.46-.25.9-.53,1.34-.82,0,0,.02-.01.02-.02.04-.02.07-.05.11-.08.12-.09.24-.17.36-.26.02-.01.04-.03.06-.05-.1.07-.2.13-.3.2-3.43,2.11-7.53,2.99-11.51,2.19Zm-103.78-95.13c-11.54-4.94-21.25-6.33-24.9-3.21.55-.34,1.19-.6,1.92-.8.09-.03.19-.05.28-.07.1-.02.21-.05.31-.07.09-.02.18-.03.27-.05.45-.07.93-.14,1.43-.17.12-.01.24-.02.36-.02,1.53-.07,3.27.05,5.19.36.25.04.51.08.78.13.01,0,.55.11.81.15.25.05,1.02.22,1.15.25.84.19,1.7.41,2.59.66.26.07,1.27.38,1.52.45.76.23,1.54.49,2.33.77.57.2,1.14.41,1.73.62.4.15,4.06,1.65,4.15,1.69l.36-.59c-.1-.04-.19-.08-.29-.12Zm31.84,3.89l-7.12,11.79c11,8.82,17.11,17.74,14.41,22.22-.08.12-.16.24-.25.36-.04.07-.1.13-.15.19-.14.17-.3.33-.48.48.65-.39,1.16-.89,1.52-1.49,2.7-4.48-3.41-13.4-14.41-22.22l6.9-11.43-.42.1Zm4.08-63.37l-27.71,6.84c-1.45.36-2.76,1.02-3.87,1.89.2-.13.4-.25.61-.37.19-.11.38-.22.58-.31.11-.06.22-.11.34-.16.11-.05.21-.09.32-.14.08-.03.16-.06.23-.09.08-.03.16-.06.24-.09.29-.1.6-.19.9-.27l28.55-7.05.22-.36-.42.1Zm32.12,3.43l-7.12,11.8,7.05,28.55c.68,2.77.17,5.58-1.21,7.86-.08.14-.17.27-.26.4-.17.25-.35.5-.54.73-.06.08-.13.16-.19.23-.06.07-.11.13-.17.2-.2.23-.42.44-.64.65-.1.1-.21.19-.32.28-.12.1-.23.2-.36.29,3.53-2.35,5.4-6.77,4.33-11.11l-7.05-28.55,6.77-11.21c-.09-.04-.19-.08-.28-.13Zm-12.75-35.49c-1.43-.61-2.82-1.16-4.18-1.67-9.66-3.55-17.52-4.28-20.72-1.54.55-.34,1.19-.6,1.92-.8.09-.03.19-.05.28-.07.1-.02.21-.05.31-.07.09-.02.18-.03.27-.05.45-.07.93-.14,1.43-.17.12-.01.24-.02.36-.02.37-.02.76-.02,1.15-.02.26,0,.53.01.81.03.14,0,.28.02.42.03.14.01.72.06.87.07.28.03.57.07.87.1.15.02.3.04.46.06.15.02.3.04.46.07.16.02.31.04.47.08.17.03.34.06.51.09.25.04.87.17.93.18.54.11,1.08.23,1.64.37.33.08.67.16,1.02.26.25.06,1.45.4,1.71.48.25.07.5.15.74.23,1.04.32,2.1.68,3.2,1.08.28.1,1.21.45,1.39.52.99.38,1.99.79,3.01,1.22.11.04.51.22.6.26l.36-.59c-.1-.04-.19-.08-.29-.12Zm56.44-36.85l-31.72,52.52c11,8.82,17.11,17.74,14.41,22.22-.04.07-.09.15-.14.21-.02.04-.05.08-.08.11-.05.07-.11.14-.17.21-.08.1-.17.19-.26.28-.08.07-.15.15-.23.21,0,0-.02.02-.02.02.65-.4,1.17-.9,1.54-1.51,2.7-4.48-3.41-13.4-14.41-22.22l31.43-52.04c-.12,0-.23-.01-.35-.02Zm5.1-65.06c-7.53-.44-15.06,1.77-21.17,6.29.09-.06.18-.13.27-.19.15-.1.31-.21.46-.31.54-.36,1.09-.7,1.65-1.02.17-.1.34-.19.51-.29.07-.04.15-.08.22-.12.17-.09.33-.18.5-.26.2-.11.41-.21.63-.32.21-.11.42-.21.63-.31.14-.07.27-.13.42-.19.27-.12.54-.23.82-.35.01,0,.03-.02.05-.02.3-.12.6-.24.91-.36.05-.02.1-.04.16-.06.28-.11.56-.21.85-.31.08-.03.16-.05.23-.08.29-.1.58-.2.88-.28.02,0,.05-.02.07-.02.29-.08.58-.17.87-.25.11-.03.23-.06.34-.09.15-.04.3-.08.44-.11.15-.04.29-.07.44-.11.34-.08,1.1-.24,1.14-.24.3-.05.6-.11.9-.16.06-.01.12-.02.18-.03.31-.05.63-.09.95-.13.43-.06.86-.1,1.29-.14.27-.02.54-.04.8-.06.45-.03.89-.05,1.34-.07.35,0,.71,0,1.07,0,.37,0,.74.01,1.11.03.13,0,.26.01.38.02.07,0,.13,0,.19.01.06,0,.13,0,.19.01.11,0,.23.01.35.02l.29-.48c-.11,0-.23-.02-.35-.02Zm56.56-37.05l-31.72,52.52c6.34,10.04,6.91,23.2.35,34.05-.58.96-1.2,1.87-1.85,2.74-.14.19-.29.38-.43.56-.14.18-.28.35-.42.52-.36.45-.74.88-1.13,1.3-.17.19-.34.37-.52.55-.14.15-.28.3-.42.44-.35.35-.71.69-1.06,1.02-.14.13-.28.25-.42.38-.15.14-.3.27-.46.4-.16.14-.32.27-.48.4-.39.32-.79.63-1.19.93,3.54-2.5,6.63-5.75,9.02-9.7,6.55-10.85,5.98-24.01-.35-34.05l31.36-51.94c-.09-.04-.19-.08-.28-.13Zm-12.75-35.49c-11.54-4.94-21.25-6.33-24.9-3.21.55-.34,1.19-.6,1.92-.8.09-.03.19-.05.28-.07.1-.02.21-.05.31-.07.09-.02.18-.03.27-.05.45-.07.93-.14,1.43-.17.12-.01.24-.02.36-.02.37-.02.76-.02,1.15-.02.26,0,.53.01.81.03.14,0,.28.02.42.03.14.01.72.06.87.07.28.03.57.07.87.1.15.02.3.04.46.06.15.02.3.04.46.07.16.02.31.04.47.08.17.03.34.06.51.09.25.04.87.17.93.18.54.11,1.08.23,1.64.37.33.08.67.16,1.02.26.25.06,1.45.4,1.71.48.25.07.5.15.74.23,1.04.32,2.1.68,3.2,1.08.28.1.57.21.86.32,1.16.44,2.34.92,3.55,1.43.11.04.51.22.6.26l.36-.59c-.1-.04-.19-.08-.29-.12Zm31.84,3.88l-7.12,11.8c11,8.82,17.11,17.74,14.41,22.22-.04.07-.09.15-.14.21-.02.04-.05.08-.08.11-.05.07-.11.14-.17.21-.08.1-.17.19-.26.28-.08.07-.15.15-.23.21,0,0-.02.02-.02.02.65-.4,1.17-.9,1.54-1.51,2.7-4.48-3.41-13.4-14.41-22.22l6.91-11.44-.42.1Zm-23.62-56.53c-1.45.36-2.76,1.02-3.87,1.89.19-.13.39-.25.59-.37.19-.11.39-.21.58-.31.12-.05.23-.11.35-.16.11-.05.21-.09.32-.14.08-.03.16-.06.23-.09.08-.03.16-.06.24-.09.29-.1.6-.19.9-.27l28.56-7.05.22-.36-28.13,6.95Zm59.82-3.41l-7.12,11.79,7.05,28.56c.68,2.77.17,5.57-1.21,7.84-.08.14-.17.28-.26.41-.17.25-.35.5-.54.74-.05.06-.1.13-.16.19-.07.08-.14.17-.21.25-.14.16-.29.32-.45.47-.06.06-.13.12-.19.18-.1.09-.2.18-.3.27-.12.1-.23.2-.36.29,3.53-2.35,5.4-6.77,4.33-11.11l-7.05-28.56,6.77-11.2c-.09-.04-.19-.08-.28-.13ZM224.22,2.97c-.11.08-.22.15-.33.24-.04.02-.07.05-.1.08,0,0-.02.01-.03.02,0,0,0,0-.01,0-.03.02-.05.04-.08.06-.1.07-.19.15-.29.23-.1.08-.21.17-.31.26-.31.26-.61.54-.9.83-.09.1-.19.2-.29.3-.29.31-.57.62-.83.95-.08.1-.16.21-.24.32-.09.11-.17.23-.25.34-.06.07-.1.15-.15.22-.04.05-.08.11-.12.17-.14.22-.29.45-.43.68L2.25,368.01c-3.46,5.73-2.8,12.8,1.13,17.75,1.12,1.42,2.51,2.66,4.15,3.64l18,10.87.29-.47s.06-.1.09-.15l-17.74-10.71c-1.74-1.05-3.19-2.38-4.35-3.91-3.75-4.94-4.33-11.86-.93-17.49L220.51,7.18c.97-1.61,2.2-2.99,3.58-4.1.07-.06.15-.12.23-.19-.03.02-.07.04-.1.07Zm77.59,53.63s0,0,.01,0c.08-.05.17-.1.26-.15.08-.04.17-.09.26-.13.03,0,.05-.02.07-.03.08-.04.17-.08.26-.11.11-.04.21-.08.32-.12.11-.04.22-.08.33-.11.11-.04.22-.07.34-.1.23-.06.47-.12.73-.17.13-.02.26-.04.39-.07.1-.02.21-.03.32-.05.96-.13,2.03-.17,3.2-.11.15,0,.3.02.45.03.51.04,1.03.08,1.58.15.18.02.35.04.53.07.36.05.73.11,1.11.17.37.06.74.13,1.13.21.08.01.17.03.25.05.15.03.29.06.44.09.22.05.44.1.66.15,1.93.45,3.99,1.05,6.15,1.8.22.08,1.84.67,2.03.74.93.35,1.87.73,2.83,1.12.26.11,1.79.77,1.98.86.81.36,1.62.74,2.44,1.13.2.1.41.2.62.3,1.31.63,2.62,1.31,3.95,2.03.28.15,2.56,1.42,2.79,1.55.76.43,1.52.88,2.28,1.34,18.11,10.93,29.89,24.59,26.32,30.5-.04.07-.09.14-.14.21-.02.04-.05.08-.08.11-.05.07-.11.14-.17.21-.08.1-.17.19-.26.28-.08.07-.15.15-.23.21,0,0-.02.02-.02.02.65-.4,1.17-.9,1.54-1.51,3.57-5.91-8.22-19.56-26.32-30.5-16.89-10.2-33.32-14.43-38.34-10.15Zm122.55,56.98s-.06.1-.09.15c-.06.09-.12.18-.17.27-.09.12-.17.24-.25.36-.08.11-.17.21-.25.32-.08.1-.16.19-.24.28-.08.09-.16.18-.24.27-.06.06-.11.12-.17.18-.07.07-.15.15-.23.22-.02.02-.03.03-.05.05-.08.07-.15.14-.23.21-.13.11-.26.22-.39.32.93-.61,1.76-1.39,2.45-2.33.14-.19.28-.39.41-.6l-.26-.16-.29.47ZM289.74,2.85c-.11.08-.22.15-.33.24-.04.02-.07.05-.1.08l-.03.02s0,0-.01,0c-.03.02-.05.04-.08.06-.1.07-.19.15-.29.23-.1.08-.21.17-.31.26-.31.26-.61.54-.9.83-.09.1-.19.2-.29.3-.29.31-.57.62-.83.95-.08.1-.16.21-.24.32-.09.11-.17.23-.25.34-.06.07-.1.15-.15.22-.04.05-.08.11-.12.17-.14.22-.29.45-.43.68,0,0-10.08,16.68-10.17,16.82-.09.12-.17.24-.25.36-.08.11-.17.21-.25.32-.08.1-.16.19-.24.28-.08.09-.16.18-.24.27-.06.06-.11.12-.17.18-.07.07-.15.15-.23.22-.02.02-.03.03-.05.05-.08.07-.15.14-.23.21-.13.11-.26.22-.39.32,1.17-.77,2.19-1.81,2.96-3.08l9.9-16.4c.97-1.61,2.2-2.99,3.58-4.1.07-.06.15-.12.23-.19-.03.02-.07.04-.1.07Z"/>
  </g>
  <g class="cls-5">
    <path d="m25.69,399.52c-.15.19-.28.39-.41.6l.26.16.29-.47s.06-.1.09-.15c.06-.09.12-.18.17-.27.07-.1.14-.2.21-.3.06-.08.12-.16.17-.23.05-.07.11-.14.16-.21.03-.03.05-.06.08-.09.09-.11.18-.21.28-.32.1-.11.21-.22.32-.33,0,0,.01-.01.02-.02.11-.11.23-.22.34-.32.12-.11.23-.21.36-.31-.89.6-1.7,1.36-2.36,2.27Zm148.38,90.4l-9.9,16.4c-.98,1.62-2.2,2.99-3.6,4.11-.07.07-.15.13-.23.19.04-.02.07-.05.11-.08.12-.09.24-.17.36-.26.02-.01.04-.03.06-.05,0,0,.01,0,.02-.01.02-.01.03-.02.05-.03.03-.02.05-.03.07-.05.1-.08.19-.15.29-.23.18-.14.35-.29.53-.44.23-.21.46-.42.68-.64.09-.1.19-.2.29-.3.29-.31.57-.62.83-.95.08-.1.16-.21.24-.32.09-.11.17-.23.25-.34.06-.07.1-.15.15-.22.04-.05.08-.11.12-.17.14-.22.29-.45.43-.68,0,0,10.08-16.68,10.17-16.82.07-.1.14-.2.21-.3.06-.08.12-.16.17-.23.05-.07.11-.14.16-.21.03-.03.05-.06.08-.09.09-.11.18-.21.28-.32.1-.11.21-.22.32-.33,0,0,.01-.01.02-.02.11-.11.23-.22.34-.32.12-.11.23-.21.36-.31-1.14.76-2.12,1.77-2.87,3.01Zm-90.36-73.78c-3.57,5.91,8.22,19.56,26.32,30.5,16.89,10.2,33.31,14.43,38.33,10.15,0,0,.01-.01.02-.02-.09.05-.18.11-.27.16-.18.1-.38.2-.59.28-.31.13-.64.24-.99.34-.35.1-.72.18-1.11.24-.29.05-.59.09-.91.12-.1,0-.21.02-.32.02-.26.02-.53.03-.81.04-.02,0-.05,0-.07,0-.15,0-.3,0-.46,0-.31,0-.63,0-.95-.02-.48-.02-.99-.06-1.51-.12-.35-.04-.7-.08-1.06-.13-.34-.04-.68-.1-1.03-.16-.02,0-.04,0-.06-.01-.56-.1-1.13-.21-1.72-.33-.2-.04-.39-.08-.59-.13-.2-.05-1.41-.34-1.82-.45-.62-.17-1.25-.34-1.89-.53-.21-.07-.43-.13-.65-.2-.65-.2-1.31-.42-1.98-.65-.22-.08-1.77-.63-1.98-.71-.5-.19-1.01-.39-1.53-.59-.21-.08-.41-.17-.62-.25-.7-.29-1.42-.59-2.13-.9-.24-.1-1.6-.72-1.82-.82-1.08-.5-2.18-1.03-3.28-1.59-.25-.13-1.93-.99-2.5-1.31-.28-.15-2.56-1.42-2.79-1.55-.76-.43-1.52-.88-2.28-1.34-18.11-10.93-29.89-24.59-26.32-30.5.05-.08.09-.14.14-.22.02-.04.05-.07.08-.11.05-.07.11-.14.17-.21.08-.1.17-.19.26-.28.07-.08.15-.15.23-.21,0,0,.02-.02.02-.02-.65.4-1.17.9-1.54,1.51Zm90.11-2.99c-.19.11-.39.21-.58.31-.12.05-.23.11-.35.16-.11.05-.21.09-.32.14-.08.03-.16.06-.23.09-.08.03-.16.06-.24.09-.29.1-.6.19-.9.27l-28.56,7.05-.22.36,28.13-6.95c1.45-.36,2.76-1.02,3.87-1.89-.19.13-.39.25-.59.37Zm-63.67-34.95l7.05,28.56-6.77,11.2c.09.04.19.08.28.13l7.12-11.79-7.05-28.56c-.68-2.77-.17-5.57,1.21-7.84.08-.14.17-.28.26-.41.17-.25.35-.5.54-.74.05-.06.1-.13.16-.19.07-.08.14-.17.21-.25.14-.16.29-.32.45-.47.06-.06.13-.12.19-.18.1-.09.2-.18.3-.27.11-.1.23-.2.36-.29-3.53,2.35-5.4,6.77-4.33,11.11Zm91.31-12.1c-.1.03-.21.05-.31.07-.09.02-.18.03-.27.05-.45.07-.93.14-1.43.17-.12.01-.24.02-.36.02-.37.02-.76.02-1.15.02-.26,0-.53-.01-.81-.03-.14,0-.28-.02-.42-.03-.14-.01-.72-.06-.87-.07-.28-.03-.57-.07-.87-.1-.15-.02-.3-.04-.46-.06-.15-.02-.3-.04-.46-.07-.16-.02-.31-.04-.47-.08-.17-.03-.34-.06-.51-.09-.25-.04-.87-.17-.93-.18-.54-.11-1.08-.23-1.64-.37-.33-.08-.67-.16-1.02-.26-.25-.06-1.45-.4-1.71-.48-.25-.07-.5-.15-.74-.23-1.04-.32-2.1-.68-3.2-1.08-.14-.05-.72-.26-.86-.32-1.16-.44-2.34-.92-3.55-1.43-.11-.04-.51-.22-.6-.26l-.36.59c.1.04.19.08.29.12,1.75.75,3.47,1.42,5.12,2,9.23,3.25,16.68,3.85,19.78,1.21-.62.38-1.36.67-2.21.87Zm-62.46-41.51c-2.7,4.48,3.41,13.4,14.41,22.22l-6.91,11.44.42-.1,7.12-11.8c-11-8.82-17.11-17.74-14.41-22.22.05-.08.09-.14.14-.22.02-.04.05-.07.08-.11.05-.07.11-.14.17-.21.08-.1.17-.19.26-.28.07-.08.15-.15.23-.21,0,0,.02-.02.02-.02-.65.4-1.17.9-1.54,1.51Zm104.47-41.22c-.15.1-.31.21-.46.31-.54.36-1.09.7-1.65,1.02-.17.1-.34.19-.51.29-.07.04-.15.08-.22.12-.17.09-.33.18-.5.26-.2.11-.41.21-.62.32-.21.11-.42.21-.63.31-.14.07-.27.13-.42.19-.27.12-.54.23-.82.35-.01,0-.03.02-.05.02-.3.12-.6.24-.91.36-.05.02-.1.04-.16.06-.28.11-.56.21-.85.31-.08.03-.16.05-.23.08-.29.1-.58.2-.88.28-.02,0-.05.02-.07.02-.29.08-.58.17-.87.25-.33.09-.66.18-.99.25-.08.02-.16.04-.23.05-.34.08-.69.15-1.04.22-.03,0-.06.01-.1.02-.3.05-.6.11-.9.16-.06.01-.12.02-.18.03-.31.05-.63.09-.95.13-.43.06-.86.1-1.29.14-.27.02-.53.04-.8.06-.45.03-.89.05-1.34.07-.35,0-.71,0-1.07,0-.37,0-.74-.01-1.11-.03-.13,0-.26-.01-.38-.02-.07,0-.13,0-.19-.01-.06,0-.13,0-.19-.01-.11,0-.23-.01-.35-.02l-.29.48c.11,0,.23.02.35.02,3.45.2,6.9-.15,10.21-1.04,3.92-1.04,7.65-2.81,10.96-5.26-.09.06-.18.13-.27.19Zm-41.04-49.96c-2.16,2.01-4.09,4.35-5.69,7.01-6.55,10.85-5.98,24.01.35,34.05l-31.36,51.94c.09.04.19.08.28.13l31.72-52.52c-6.34-10.04-6.91-23.2-.35-34.05.58-.96,1.2-1.87,1.85-2.74.14-.19.29-.38.43-.56.14-.18.28-.35.42-.52.36-.45.74-.88,1.13-1.3.17-.19.34-.37.52-.55.14-.15.28-.3.42-.44.11-.11.22-.22.34-.33.24-.24.48-.47.73-.69.14-.13.28-.25.42-.38.15-.14.3-.27.45-.4.16-.14.32-.27.48-.4.39-.32.79-.63,1.19-.93-1.16.81-2.27,1.71-3.33,2.69Zm104.38-41.76c-.1.03-.21.05-.31.07-.09.02-.18.03-.27.05-.45.07-.93.14-1.43.17-.12.01-.24.02-.36.02-.37.02-.76.02-1.15.02-.26,0-.53-.01-.81-.03-.14,0-.28-.02-.42-.03-.14-.01-.72-.06-.87-.07-.28-.03-.57-.07-.87-.1-.15-.02-.3-.04-.46-.06-.15-.02-.3-.04-.46-.07-.16-.02-.31-.04-.47-.08-.17-.03-.34-.06-.51-.09-.25-.04-.87-.17-.93-.18-.54-.11-1.08-.23-1.64-.37-.33-.08-.67-.16-1.02-.26-.25-.06-1.45-.4-1.71-.48-.25-.07-.5-.15-.74-.23-1.04-.32-2.1-.68-3.2-1.08-.28-.1-.57-.21-.86-.32-1.16-.44-2.34-.92-3.55-1.43-.11-.04-.51-.22-.6-.26l-.36.59c.1.04.19.08.29.12,11.54,4.94,21.25,6.33,24.9,3.21-.62.38-1.36.67-2.21.87Zm-62.46-41.51c-2.7,4.48,3.41,13.4,14.41,22.22l-31.43,52.04c.12,0,.23.01.35.02l31.72-52.52c-11-8.82-17.11-17.74-14.41-22.22.05-.08.09-.14.14-.22.02-.04.05-.07.08-.11.05-.07.11-.14.17-.21.08-.1.17-.19.26-.28.07-.08.15-.15.23-.21,0,0,.02-.02.02-.02-.65.4-1.17.9-1.54,1.51Zm90.1-2.99c-.19.11-.38.22-.58.31-.11.06-.22.11-.34.16-.11.05-.21.09-.32.14-.08.03-.16.06-.23.09-.08.03-.16.06-.24.09-.29.1-.6.19-.9.27l-28.55,7.05-.22.36,28.13-6.94c1.45-.36,2.76-1.02,3.87-1.89-.2.13-.4.25-.61.37Zm-63.66-34.95l7.05,28.55-6.77,11.21c.09.04.19.08.28.13l7.12-11.8-7.05-28.55c-.69-2.77-.17-5.58,1.21-7.86.08-.14.17-.27.26-.4.17-.25.35-.5.54-.73.06-.08.13-.16.19-.23.06-.07.11-.13.17-.2.2-.23.42-.44.64-.65.1-.1.21-.19.32-.28.11-.1.23-.2.36-.29-3.53,2.35-5.4,6.77-4.33,11.11Zm91.31-12.1c-.1.03-.21.05-.31.07-.09.02-.18.03-.27.05-.45.07-.93.14-1.43.17-.12.01-.24.02-.36.02-1.53.07-3.27-.05-5.19-.36-.25-.04-.51-.08-.78-.13-.01,0-.55-.11-.81-.15-.25-.05-1.02-.22-1.15-.25-.84-.19-1.7-.41-2.59-.66-.26-.07-1.27-.38-1.52-.45-.76-.23-1.54-.49-2.33-.77-.57-.2-1.14-.41-1.73-.62-.4-.15-2.67-1.06-2.97-1.18-.19-.08-1.09-.46-1.18-.5l-.36.59c.1.04.19.08.29.12,11.54,4.94,21.25,6.33,24.9,3.21-.62.38-1.36.67-2.21.87Zm-62.46-41.51c-2.7,4.48,3.41,13.4,14.41,22.22l-6.9,11.43.42-.1,7.12-11.79c-11-8.82-17.11-17.74-14.41-22.22.08-.14.17-.27.27-.39.04-.06.09-.12.13-.17.07-.09.15-.17.23-.25,0-.02.02-.02.03-.03.08-.07.15-.14.23-.21-.66.4-1.17.9-1.54,1.51ZM240.74,2.07c-.06-.04-.12-.07-.19-.1-.3-.16-.61-.32-.92-.46-.13-.06-.27-.12-.4-.17-.04-.02-.07-.03-.11-.04-.06-.03-.12-.05-.18-.07-.13-.05-.26-.11-.39-.15-.06-.02-.11-.04-.16-.06-.14-.05-.29-.1-.43-.15-.16-.05-.32-.1-.48-.14-.22-.06-.44-.12-.66-.18-.17-.04-.33-.08-.5-.11-.08-.02-.16-.03-.23-.04-.1-.02-.19-.04-.29-.05-.09-.02-.19-.03-.28-.05-.35-.06-.7-.09-1.06-.12-.16-.02-.34-.03-.51-.03-.59-.03-1.18-.02-1.77.02-.17,0-.35.03-.52.04,0,0,0,0,0,0-.19.02-.38.04-.57.07-.18.03-.36.05-.54.08-.76.13-1.51.32-2.25.56-.18.06-.36.12-.54.19-.15.06-.3.11-.45.17-.06.02-.12.05-.18.07-.06.03-.46.2-.51.22-.15.07-.3.14-.44.22-.12.06-.24.13-.37.19-.07.03-.13.07-.19.11-.04.03-.08.05-.13.07-.11.06-.22.12-.32.19-.17.1-.33.2-.49.3-.01,0-.03.02-.03.02-.08.05-.15.1-.23.15-.04.03-.09.06-.13.09-.03.02-.07.04-.1.07-.11.08-.22.15-.33.24-.04.02-.07.05-.1.08.1-.07.2-.13.3-.2.94-.6,1.93-1.11,2.97-1.49,2.75-1.04,5.78-1.3,8.72-.67,1.66.35,3.3.98,4.83,1.91l18,10.87-.4.66c-2.77,4.59-1.3,10.55,3.29,13.32,2.3,1.39,4.93,1.71,7.34,1.12,1.31-.32,2.55-.92,3.63-1.77-.23.15-.46.29-.71.42-.09.05-.19.1-.29.15-.41.2-.84.38-1.27.53l-.32.1c-.13.04-.26.07-.39.11-2.41.6-5.05.27-7.34-1.12-4.59-2.77-6.06-8.74-3.29-13.32l.4-.66s-18.35-11.07-18.52-11.17Zm183.62,111.51s-.06.1-.09.15l17.74,10.71c1.79,1.08,3.28,2.46,4.45,4.04,3.66,4.93,4.2,11.77.83,17.35l-217.62,360.37c-.98,1.62-2.2,2.99-3.6,4.11-.07.07-.15.13-.23.19.04-.02.07-.05.11-.08.12-.09.24-.17.36-.26.02-.01.04-.03.06-.05,0,0,.01,0,.02-.01.02-.01.03-.02.05-.03.03-.02.05-.03.07-.05.1-.08.19-.15.29-.23.18-.14.35-.29.53-.44.23-.21.46-.42.68-.64.09-.1.19-.2.29-.3.29-.31.57-.62.83-.95.08-.1.16-.21.24-.32.09-.11.17-.23.25-.34.06-.07.1-.15.15-.22.04-.05.08-.11.12-.17.14-.22.29-.45.43-.68l217.62-360.37c3.43-5.68,2.81-12.67-1.03-17.62-1.14-1.47-2.56-2.75-4.25-3.77l-18-10.87-.29.47ZM306.26,1.95c-.06-.04-.12-.07-.19-.1-.3-.16-.61-.32-.92-.46-.13-.06-.27-.12-.4-.17-.04-.02-.07-.03-.11-.04-.06-.03-.12-.05-.18-.07-.13-.05-.26-.11-.39-.15-.06-.02-.11-.04-.16-.06-.14-.05-.29-.1-.43-.15-.16-.05-.32-.1-.48-.14-.22-.06-.44-.12-.66-.18-.17-.04-.33-.08-.5-.11-.18-.03-.35-.07-.52-.1-.09-.02-.19-.03-.28-.05-.35-.06-.7-.09-1.06-.12-.16-.02-.34-.03-.51-.03-.59-.03-1.18-.02-1.77.02-.17,0-.35.03-.52.04,0,0,0,0,0,0-.19.02-.38.04-.57.07-.18.03-.36.05-.54.08-.76.13-1.51.32-2.25.56-.18.06-.36.12-.54.19-.15.06-.3.11-.45.17-.06.02-.12.05-.18.07-.13.05-.46.2-.51.22-.15.07-.3.14-.44.22-.12.06-.24.13-.37.19-.07.03-.13.07-.19.11-.04.03-.08.05-.13.07-.11.06-.22.12-.32.19-.17.1-.33.2-.49.3-.01,0-.03.02-.03.02-.08.05-.15.1-.23.15-.04.03-.09.06-.13.09-.03.02-.07.04-.1.07-.11.08-.22.15-.33.24-.04.02-.07.05-.1.08.1-.07.2-.13.3-.2,4.85-3.14,11.25-3.44,16.53-.26l105.49,63.7c7.37,4.45,9.73,14.02,5.28,21.39l-9.79,16.21c-2.77,4.59-1.3,10.55,3.29,13.32,2.3,1.39,4.93,1.71,7.34,1.12,1.31-.32,2.55-.92,3.63-1.77-.23.15-.46.29-.71.42-.09.05-.19.1-.29.15-.41.2-.84.38-1.27.53l-.32.1c-.13.04-.26.07-.39.11-2.41.6-5.05.27-7.34-1.12-4.59-2.77-6.06-8.74-3.29-13.32l9.79-16.21c4.45-7.37,2.08-16.94-5.28-21.39,0,0-105.83-63.9-106-64Z"/>
  </g>
</svg>