<?xml version="1.0" encoding="utf-8"?>
<!-- Generator: Adobe Illustrator 27.5.0, SVG Export Plug-In . SVG Version: 6.00 Build 0)  -->
<svg version="1.1" id="Layer_1" xmlns="http://www.w3.org/2000/svg" xmlns:xlink="http://www.w3.org/1999/xlink" x="0px" y="0px"
	 viewBox="0 0 600 600" style="enable-background:new 0 0 600 600;" xml:space="preserve">
<style type="text/css">
	.st0{fill:url(#SVGID_1_);}
</style>
<linearGradient id="SVGID_1_" gradientUnits="userSpaceOnUse" x1="300" y1="545.0612" x2="300" y2="54.9388">
	<stop  offset="3.369874e-09" style="stop-color:#4F2C0E"/>
	<stop  offset="1" style="stop-color:#934C21"/>
</linearGradient>
<path class="st0" d="M349.36,98.62c-3.88-2.46-8.83-2.38-12.62,0.2c-8.01,5.46-17.95,12.7-23.15,18.27
	c-0.84,0.9-1.82,1.66-3.29,2.19c0.45-1.06,0.81-2.16,1.37-3.16c5.03-9.01,10.07-18.01,15.15-26.99
	c5.09-8.98,10.23-17.92,15.35-26.87c0.55-0.97,1.12-1.93,1.71-2.87c3.49-5.55,7.78-5.95,12.72-1.02c-1.15,5.02-4.1,9.23-4.37,14.4
	c4.32-2.81,6.57-7.61,11.2-11.31c-0.25,6.02-4.41,10.03-4.84,15.8c4.89-3.08,6.77-8.3,11.33-11.37c0.57,3.15-1.23,5.25-2.04,7.58
	c-0.84,2.42-1.82,4.8-2.33,7.45c4.41-2.78,6.62-7.62,10.91-11.05c0.61,3.2-1.16,5.31-1.95,7.65c-0.81,2.39-1.74,4.74-2.17,7.38
	c2.48-1.31,3.96-3.41,5.57-5.4c1.51-1.87,3.17-3.62,5.27-5.99c0.59,3.79-1.39,5.87-2.12,8.28c-0.7,2.31-1.8,4.5-2.31,7.03
	c4.67-2.46,6.64-7.73,10.87-10.49c0.29,0.18,0.59,0.37,0.88,0.55c-1.77,4.64-3.54,9.29-5.3,13.93c0.26,0.15,0.52,0.3,0.78,0.45
	c4.02-2.97,6.31-7.74,10.92-11.45c-0.54,6.01-4.3,10.05-5.03,15.78c4.95-3.03,6.77-8.44,11.87-10.68
	c-1.78,4.63-3.55,9.26-5.33,13.89c0.28,0.15,0.56,0.31,0.83,0.46c4.23-2.74,6.14-7.93,11.1-11.24c-0.87,5.79-4.12,9.97-5.21,14.95
	c1.99-0.54,1.99-0.54,5.75-4.82c1.69-1.92,3.38-3.83,5.53-5.48c-0.23,5.23-3.65,9.39-4.53,14.96c1.09-0.66,1.84-0.91,2.29-1.42
	c2.31-2.61,4.52-5.3,6.82-7.91c0.57-0.65,1.38-1.09,2.08-1.62c0.24,0.16,0.47,0.32,0.71,0.48c-0.86,2.28-1.7,4.58-2.59,6.85
	c-0.91,2.3-1.87,4.58-3.07,7.5c3.48-0.93,4.47-3.52,6.13-5.31c1.72-1.85,3.39-3.75,5.46-5.37c-0.45,5.13-3.44,9.3-4.72,14.54
	c3.35-0.57,4.1-3.47,5.86-5.11c1.86-1.73,3.43-3.77,5.59-5.41c-0.25,5.23-3.64,9.39-4.63,15.2c4.74-3.38,6.94-8.19,11.51-11.82
	c-0.11,1.58,0.04,2.47-0.25,3.2c-1.1,2.71-2.37,5.35-3.5,8.04c-0.5,1.19-0.85,2.45-0.83,3.96c4.56-2.63,6.68-7.74,11.16-10.36
	c-0.48,5.2-3.78,9.36-4.83,15.12c4.96-3.25,6.9-8.39,11.6-11.6c-0.09,1.25,0.03,2.03-0.22,2.67c-1.14,2.99-2.41,5.93-3.58,8.91
	c-0.41,1.05-0.69,2.16-0.67,3.42c4.53-2.64,6.46-7.75,11.22-10.94c-0.45,5.77-4.3,9.79-4.98,15.68c4.85-3.31,6.97-8.29,11.95-11.84
	c-1.01,5.87-4.05,10.1-5.47,15.86c1.5-0.83,2.37-1.08,2.89-1.64c2.34-2.58,4.66-5.18,6.83-7.9c1.36-1.71,2.65-1.63,4.31-0.59
	c3.85,2.41,4.91,5.84,2.61,10.05c-1.73,3.17-3.87,6.12-5.86,9.15c-8.99,13.78-17.97,27.56-27,41.31c-2.06,3.14-4.26,6.19-6.88,9.09
	c0.74-2.49,5.95-18.74,9.22-28.93c1.51-4.71-0.35-9.82-4.52-12.47L349.36,98.62z M236.87,165.49c1.74-2.75,4.29-4.9,7.29-6.16
	l1.74-0.73c7.91-3.79,15.77-7.68,23.76-11.32c3.69-1.68,6.51-3.95,8.47-7.59c2.5-4.66,5.4-9.1,8.18-13.61
	c3.21-5.21,4.97-5.63,10.1-2.54c2.25,1.36,4.49,2.74,7.03,4.28c-4.97,6.12-9.54,11.72-14.07,17.37c-1.57,1.96-3.03,4-4.5,6.03
	c-3.66,5.09-7.79,9.69-13.16,13.1c-1.27,0.81-2.36,1.91-3.8,3.1c0.91,0.93,1.71,1.75,2.8,2.87c-3.37,5.1-6.72,10.18-10.19,15.42
	c-0.89-0.25-1.52-0.41-2.14-0.61c-0.65-0.21-1.29-0.47-2.28-0.83c-0.8,1.32-1.59,2.61-2.38,3.9c-8.78,14.39-17.56,28.78-26.35,43.16
	c-2.68,4.39-3.87,4.68-8.37,1.98l-13.78-8.37c-3.48-2.11-4.47-6.71-2.17-10.07L236.87,165.49z M246.83,184.51
	c0.63-1.04,1.81-2.33,0.55-3.29c-0.94-0.72-2.53-0.7-3.84-0.77c-0.62-0.03-1.29,0.47-1.89,0.81c-2.18,1.23-4.51,2.27-6.46,3.8
	c-2.48,1.95-5.12,3.98-6.86,6.54c-4.06,5.97-7.64,12.27-11.38,18.46c-0.41,0.68-0.61,1.48-1,2.45c3.19,1.94,6.22,3.79,9.77,5.96
	c1.12-1.6,2.05-2.79,2.84-4.06c2.57-4.13,5.09-8.3,7.62-12.45C239.74,196.14,243.29,190.33,246.83,184.51z M304.91,345.78
	c-30.75,50.19-61.34,100.48-91.98,150.74c-1.74,2.86-3.48,5.71-5.22,8.57c0.2,0.11,0.41,0.22,0.61,0.34
	c8.16-12.15,16.36-24.28,24.49-36.46c17.19-25.75,34.33-51.53,51.53-77.27c11.4-17.05,22.93-34.02,34.3-51.08
	c6.29-9.43,14.98-16.99,25.14-22.01c11.61-5.74,23.75-10.42,36.18-14.98c0.18,0.24,0.02,0.02,0.2,0.26
	c-16.76,23.63-34.63,46.38-53.96,67.99c-14.49,16.2-28.34,32.98-40.96,50.68c-14.59,20.46-28.74,41.21-42.05,62.54
	c-8.49,13.6-17.18,27.07-25.92,40.51c-2.27,3.49-4.82,6.85-7.59,9.96c-8.46,9.47-19.81,12.05-31.49,6.91
	c-6.49-2.85-12.88-6.07-18.96-9.7c-8.97-5.36-17.7-11.12-26.37-16.95c-4.86-3.27-9.26-7.16-12.19-12.4
	c-4.58-8.19-4.37-16.57-0.67-24.93c1.8-4.07,3.9-8.03,6.13-11.89c9.09-15.68,18.41-31.23,27.39-46.97
	c9.74-17.06,19.22-34.26,28.25-51.71c9.84-19.02,18.53-38.61,26.45-58.5c8.89-22.34,17.88-44.63,28.53-66.2
	c2.65-5.38,5.3-10.76,8-16.11c0.72-1.43,1.66-2.76,2.94-4.86c0.24,1.47,0.38,2.09,0.44,2.72c0.86,9.72,1.83,19.44,2.52,29.17
	c1.18,16.67-3.45,31.96-11.44,46.41c-10.93,19.77-21.79,39.58-32.74,59.34c-8.99,16.22-18.12,32.37-27.13,48.58
	c-10.23,18.4-20.4,36.84-30.59,55.27c-0.13,0.23-0.15,0.53,0.11,1c3.36-5.52,6.7-11.05,10.32-16.44
	c20.18-30.1,38.83-61.19,56.76-92.68c11.01-19.33,23.26-38,34.24-57.37c5.2-9.17,8.8-19.13,8.97-29.74
	c0.17-10.94-2.36-21.96-2.74-32.83c-0.22-6.32-1.6-12.5-2.76-18.72c-0.6-3.23-0.07-6.1,1.61-8.77
	c7.05-11.21,13.79-22.64,21.26-33.56c7.23-10.57,15.05-20.76,22.94-30.86c7.8-9.98,16.61-19.07,25.85-27.74
	c2.69-2.53,6.3-3.84,9.99-3.72c2.92,0.09,5.85,0.22,8.77,0.25c6.36,0.06,11.89,2.75,17.33,5.56c16.12,8.33,31.78,17.46,46.84,27.58
	c6.11,4.11,12.11,8.4,18.02,12.8c1.8,1.34,4.29,3.97,5.52,5.84c2.13,3.26,3.86,6.77,5.81,10.15c2.13,3.71,2.62,8.12,1.21,12.16
	c-3.57,10.19-6.82,20.51-10.86,30.51c-7.74,19.16-17.28,37.46-27.78,55.25c-3.4,5.76-7.22,11.28-10.69,17
	c-1.75,2.89-4.13,4.81-7.25,5.95c-9.29,3.41-18.58,6.84-27.87,10.24c-3.27,1.2-6.56,2.35-9.87,3.46
	c-10.89,3.67-19.78,10.26-26.92,19.08C313.03,333.77,308.68,339.63,304.91,345.78z M331.21,147.96c1.57-0.25,2.75-0.92,3.86-1.7
	c5.36-3.77,10.74-7.49,16.02-11.37c4.35-3.2,8.26-2.62,13.42,1.94c11.77,10.41,25.9,17.61,40.17,24.19c4.91,2.26,6.6,5.07,5.93,9.61
	c-1.03,6.89-1.83,13.81-2.71,20.72c-0.17,1.31-0.22,2.63-0.33,3.94c0.15,0.03,0.31,0.06,0.46,0.1c0.22-0.49,0.52-0.95,0.66-1.46
	c2.34-8.31,4.69-16.62,6.98-24.94c1.8-6.54,0.14-9.29-6.9-13.05c-15.31-8.18-29.9-17.66-44.43-27.16
	c-5.83-3.81-8.95-3.77-13.72,0.65c-5.82,5.39-11.57,10.86-17.34,16.31C332.54,146.43,331.9,147.22,331.21,147.96z M277.44,343.38
	c-2.67-2.46-5.66-4.55-8.54-6.82c-3.19-1.46-6.29-3.05-9.52-4.32c-3.37-1.33-7.32-0.01-9.18,3.1c-5.02,8.39-8.58,17.45-11.7,26.69
	c-1.06,3.15-0.2,5.98,2.37,7.82c3.48,2.5,7.17,4.78,10.99,6.71c3.1,1.57,6.23,1.03,8.72-1.71c1.4-1.54,2.97-2.95,4.27-4.56
	c4.61-5.74,9.38-11.37,13.6-17.38C280.56,349.9,280.13,345.86,277.44,343.38z M348.42,284.9c9.55-3.48,19.1-6.99,28.68-10.39
	c9.09-3.23,13.86-9.04,13.8-20c-0.04-6.96,0.07-11.04-0.28-18.46c-0.61-12.83-0.58-21.54-10.19-27.36
	c-8.1-4.91-16.18-9.86-24.27-14.79c-0.01,0.01-0.01,0.02-0.02,0.04c-8.21-5-16.48-9.91-24.6-15.05c-4.99-3.16-10.36-4.18-15.98-3.08
	c-2.92,0.57-5.78,1.96-8.4,3.45c-8.21,4.65-16.38,9.38-24.41,14.34c-5.92,3.66-9.05,10.53-8.16,17.43c2.7,21,5.33,42.01,7.98,63.02
	c0.65,5.11,1.12,10.26,1.98,15.33c1.42,8.4,8.63,13.51,17.05,12.21c1.77-0.27,3.51-0.89,5.2-1.51
	C320.68,295.03,334.54,289.95,348.42,284.9z"/>
</svg>
