<?xml version="1.0" encoding="utf-8"?>
<!-- Generator: Adobe Illustrator 27.5.0, SVG Export Plug-In . SVG Version: 6.00 Build 0)  -->
<svg version="1.1" id="Layer_1" xmlns="http://www.w3.org/2000/svg" xmlns:xlink="http://www.w3.org/1999/xlink" x="0px" y="0px"
	 viewBox="0 0 600 600" style="enable-background:new 0 0 600 600;" xml:space="preserve">
<style type="text/css">
	.st0{fill:url(#SVGID_1_);}
	.st1{fill:url(#SVGID_00000168796727332227844610000015916237363411746984_);}
	.st2{fill:url(#SVGID_00000116215748014771671320000002390414659634559119_);}
	.st3{fill:url(#SVGID_00000018933705867115965960000009262312295988682911_);}
</style>
<g id="hairdresser_scissors">
	<linearGradient id="SVGID_1_" gradientUnits="userSpaceOnUse" x1="292.1137" y1="423.6448" x2="292.1137" y2="94.3822">
		<stop  offset="0" style="stop-color:#BF5A00"/>
		<stop  offset="1" style="stop-color:#EAB344"/>
	</linearGradient>
	<path class="st0" d="M491.05,95.04L370.28,197.01l-22.68,60.89l147-159.2C496.75,96.35,493.51,92.94,491.05,95.04z M286.26,301.11
		l5.82-38.03c-1.99,1.64-4.11,3.19-6.3,4.49l-45.3,27.66c-15.64,9.55-34.75,10.71-51.81,4.01c-20.49-8.04-47.23-3.9-68.98,12.73
		c-14.45,11.07-24.69,26.03-28.8,42.12c-4.31,16.93-1.45,33.16,8.08,45.6c1.27,1.68,2.67,3.25,4.13,4.72
		c9.45,9.5,22.64,14.8,37.82,14.98c5.37,0.1,10.79-0.55,16.19-1.75c0.49,0.84,1.06,1.63,1.77,2.37c5.23,5.25,14.27,4.74,20.13-1.14
		c3.54-3.49,5.11-8.17,4.71-12.48c1.81-1.18,3.58-2.44,5.36-3.78c14.45-11.07,24.67-26,28.77-42.09c0.01-0.09,0.06-0.15,0.07-0.24
		c4.08-16.26,14.21-30.31,28.99-38.21L286.26,301.11z M176.87,386.68c-10.93,8.35-23.56,12.85-35.7,12.69
		c-11.2-0.18-20.57-4.37-26.28-11.86c-5.73-7.47-7.38-17.6-4.58-28.48c3-11.72,10.65-22.81,21.56-31.13
		c20.44-15.68,46.25-16.95,59.58-3.55c0.87,0.86,1.66,1.76,2.4,2.72c5.71,7.5,7.33,17.61,4.58,28.48
		C195.41,367.31,187.74,378.34,176.87,386.68z"/>
	
		<linearGradient id="SVGID_00000084496115970854122010000000094001601743908022_" gradientUnits="userSpaceOnUse" x1="322.5605" y1="567.6667" x2="322.5605" y2="41">
		<stop  offset="0" style="stop-color:#BF5A00"/>
		<stop  offset="1" style="stop-color:#EAB344"/>
	</linearGradient>
	<path style="fill:url(#SVGID_00000084496115970854122010000000094001601743908022_);" d="M285.86,560.84l-0.36-0.36
		c-3.03-3.03-5.78-6.16-7.29-9.94c-1.57-3.72-2.45-7.65-2.57-11.74c-0.07-4.1,0.44-8.25,1.41-12.34c0.47-2.04,1.08-4.08,1.8-6.05
		c0.06-0.17,0.13-0.36,0.2-0.53c22.97,1.75,45.72-10.55,56.06-32.61c13.33-28.43,3.16-48.77-9.28-61.56
		c-13.74-14.13-20.02-33.87-16.05-53.17l15.75-76.55c0.54-2.63,1.28-5.21,2.22-7.72l90.83-243.79c1.12-3.01-3.19-4.93-4.68-2.08
		L302.91,255.28c-1.42,2.72-2.38,5.64-2.84,8.67l-16.58,108.04c-2.74,17.84-13.87,32.9-29.38,42.14c-9.43,5.62-17.34,14-22.35,24.67
		c-13.36,28.5-1.05,62.55,27.44,75.91c1.06,0.5,2.14,0.89,3.21,1.31c-0.02,0.11-0.04,0.21-0.06,0.32c-0.45,2.66-0.74,5.32-0.87,8.01
		c-0.29,5.37,0.02,10.83,1.13,16.21c1.15,5.39,3.34,10.65,6.42,15.26c3.03,4.71,7.4,8.22,11.77,11.16c1.55,1.05,3.68,0.88,5.06-0.49
		C287.42,564.94,287.42,562.41,285.86,560.84z M315.45,270.69c-5.02-2.35-7.17-8.32-4.82-13.34c2.35-5.01,8.32-7.17,13.34-4.82
		c5.01,2.35,7.17,8.32,4.82,13.34C326.43,270.88,320.46,273.04,315.45,270.69z M267.72,496.55c-18.48-8.67-26.47-30.76-17.8-49.24
		c8.67-18.48,30.75-26.47,49.24-17.8c18.48,8.67,26.47,30.76,17.8,49.24C308.29,497.24,286.2,505.22,267.72,496.55z"/>
</g>
<linearGradient id="SVGID_00000146501015771963945940000017665210614208973470_" gradientUnits="userSpaceOnUse" x1="439.6237" y1="323.346" x2="439.6237" y2="224.5556">
	<stop  offset="0" style="stop-color:#BF5A00"/>
	<stop  offset="1" style="stop-color:#EAB344"/>
</linearGradient>
<path style="fill:url(#SVGID_00000146501015771963945940000017665210614208973470_);" d="M439.49,323.34c-0.28-2-0.55-4-0.84-6
	c-0.95-6.42-1.96-12.83-3.91-19.05c-1.58-5.02-3.81-9.67-7.81-13.28c-2.95-2.67-6.43-4.41-10.15-5.71
	c-5.98-2.08-12.19-3.16-18.43-4.1c-2.73-0.41-5.47-0.8-8.23-1.32c0.62-0.11,1.24-0.21,1.87-0.32c5.64-0.93,11.31-1.74,16.92-2.84
	c5.3-1.04,10.44-2.63,15.05-5.59c4.55-2.92,7.52-7.09,9.51-12.04c2.15-5.34,3.3-10.94,4.23-16.59c0.62-3.79,1.13-7.61,1.7-11.41
	c0.03-0.19,0.1-0.38,0.28-0.55c0.39,2.76,0.74,5.53,1.18,8.28c1.03,6.47,2.16,12.91,4.38,19.12c2.86,7.99,8.22,13.4,16.21,16.28
	c5.73,2.07,11.67,3.21,17.66,4.17c3.04,0.48,6.09,0.88,9.13,1.32c0.29,0.04,0.58,0.13,0.9,0.2c-5,0.79-9.95,1.5-14.88,2.38
	c-5.15,0.91-10.23,2.14-15.05,4.26c-6.29,2.76-10.67,7.34-13.29,13.66c-2.03,4.89-3.22,10-4.1,15.2c-0.79,4.63-1.48,9.29-2.21,13.93
	C439.56,323.34,439.52,323.34,439.49,323.34z"/>
<linearGradient id="SVGID_00000054235736448893118790000009272082584682535315_" gradientUnits="userSpaceOnUse" x1="372.3351" y1="368.9051" x2="372.3351" y2="308.7589">
	<stop  offset="0" style="stop-color:#BF5A00"/>
	<stop  offset="1" style="stop-color:#EAB344"/>
</linearGradient>
<path style="fill:url(#SVGID_00000054235736448893118790000009272082584682535315_);" d="M403.31,338.8
	c-4.55,0.86-8.3,1.61-12.07,2.29c-9.45,1.71-15.11,7.25-16.95,16.67c-0.72,3.67-1.36,7.36-2.52,11.15
	c-0.19-1.07-0.35-2.15-0.57-3.22c-0.69-3.37-1.31-6.76-2.13-10.1c-1.87-7.64-6.82-12.24-14.4-14.01c-4.32-1.01-8.69-1.78-13.31-2.72
	c5.03-1.11,9.83-2.06,14.58-3.23c7.5-1.85,11.6-7.04,13.34-14.28c0.83-3.44,1.36-6.95,2.04-10.43c0.15-0.74,0.35-1.47,0.93-2.16
	c0.62,3.45,1.25,6.89,1.85,10.35c1.75,10.12,7.75,15.92,17.82,17.64C395.47,337.36,399.01,338.02,403.31,338.8z"/>
</svg>
